<?xml version="1.0" standalone="no"?>
<!DOCTYPE svg PUBLIC "-//W3C//DTD SVG 20010904//EN"
 "http://www.w3.org/TR/2001/REC-SVG-20010904/DTD/svg10.dtd">
<svg version="1.0" xmlns="http://www.w3.org/2000/svg"
 width="300.000000pt" height="300.000000pt" viewBox="0 0 300.000000 300.000000"
 preserveAspectRatio="xMidYMid meet">
<metadata>
Created by potrace 1.10, written by Peter Selinger 2001-2011
</metadata>
<g transform="translate(0.000000,300.000000) scale(0.100000,-0.100000)"
fill="#000000" stroke="none">
<path d="M1384 2650 c-34 -10 -74 -26 -90 -36 -45 -30 -118 -110 -136 -150 -6
-13 -15 -24 -19 -24 -9 0 -20 -28 -25 -64 -2 -17 -8 -32 -14 -36 -5 -3 -5 -11
-1 -18 8 -13 -8 -78 -31 -132 -17 -39 -19 -50 -21 -120 -1 -36 -6 -71 -10 -78
-12 -17 29 -71 60 -78 18 -5 21 -9 11 -15 -11 -7 -11 -9 1 -9 8 0 11 -6 7 -15
-3 -9 3 -35 13 -58 16 -34 19 -61 16 -142 -3 -133 -10 -158 -56 -208 -22 -22
-39 -37 -39 -33 0 5 -8 2 -17 -6 -10 -9 -37 -25 -60 -37 -24 -12 -43 -25 -43
-29 0 -4 -11 -8 -24 -8 -13 -1 -33 -11 -45 -23 -12 -12 -26 -19 -30 -16 -5 2
-14 -2 -21 -10 -7 -8 -17 -15 -22 -15 -5 0 -24 -11 -42 -25 -18 -14 -41 -25
-50 -25 -32 0 -102 -38 -115 -63 -14 -27 -57 -51 -66 -38 -2 5 -21 12 -40 15
-48 9 -156 61 -147 71 4 5 -1 5 -10 2 -11 -4 -29 4 -48 20 -26 21 -30 32 -29
67 1 22 6 48 10 57 5 11 2 29 -9 50 l-17 34 -3 -96 c-3 -104 8 -149 35 -149 9
0 35 -9 57 -20 23 -10 84 -35 136 -55 l95 -36 44 46 c29 31 61 53 95 65 28 10
109 52 180 94 72 42 134 76 139 76 10 0 114 66 133 85 28 27 34 59 34 174 0
74 -6 142 -15 178 -8 31 -15 72 -15 91 0 28 -3 32 -19 27 -13 -4 -26 2 -39 16
-30 31 -26 175 6 240 12 25 26 80 32 122 10 81 27 120 80 190 25 33 128 105
168 118 20 6 40 17 44 23 5 8 8 7 8 -2 0 -7 4 -11 9 -8 16 11 136 8 178 -3 43
-12 136 -70 165 -105 34 -40 86 -131 93 -163 10 -49 20 -47 16 4 -2 24 -6 42
-9 39 -3 -3 -15 19 -28 50 -12 30 -37 69 -56 85 -18 17 -45 41 -60 55 -15 13
-32 24 -37 24 -6 0 -11 5 -11 10 0 6 -8 10 -18 10 -10 0 -22 3 -26 7 -21 21
-182 23 -252 3z"/>
<path d="M1468 2603 c-16 -3 -28 -9 -28 -15 0 -5 -6 -8 -13 -5 -8 3 -14 0 -15
-6 0 -7 -4 -22 -7 -34 -5 -15 -3 -23 4 -23 7 0 9 5 6 10 -3 6 0 10 9 10 8 0
17 -6 19 -12 3 -7 6 -1 6 14 1 37 50 52 101 31 21 -9 21 -9 64 -18 50 -10 113
-73 150 -148 14 -30 26 -59 26 -65 0 -7 6 -12 14 -12 18 0 28 -39 30 -111 l1
-57 -25 18 -25 18 0 -47 c0 -25 -4 -67 -8 -93 -9 -53 7 -69 18 -18 4 17 10 30
14 30 17 0 40 69 44 133 7 109 -24 210 -88 288 -61 73 -202 126 -297 112z"/>
<path d="M1303 2538 c-11 -13 -35 -36 -52 -52 -38 -34 -67 -88 -75 -140 -11
-68 -18 -86 -33 -86 -11 0 -13 -3 -5 -13 7 -8 7 -18 2 -27 -5 -8 -7 -24 -5
-35 7 -30 -10 -90 -24 -87 -7 1 -9 -2 -5 -9 3 -6 0 -15 -7 -20 -12 -7 -12 -12
-1 -29 7 -11 10 -25 7 -30 -3 -6 1 -7 10 -4 12 5 13 10 6 17 -13 13 -15 47 -3
47 20 0 37 53 49 145 3 28 12 59 19 70 7 11 16 38 20 60 11 63 48 127 100 173
26 23 41 42 33 42 -9 0 -25 -10 -36 -22z"/>
<path d="M120 2232 c0 -4 14 -15 32 -25 22 -12 34 -15 42 -7 7 7 6 10 -4 10
-8 0 -27 7 -42 14 -16 8 -28 12 -28 8z"/>
<path d="M1280 2225 c-19 -8 -43 -17 -52 -21 -10 -3 -18 -10 -18 -15 0 -14 23
-11 48 7 27 19 134 23 140 5 3 -9 7 -9 18 0 12 10 10 14 -12 25 -33 18 -79 17
-124 -1z"/>
<path d="M1 2209 c-1 -15 6 -32 14 -39 8 -7 12 -17 9 -22 -3 -5 0 -9 7 -7 8 1
21 1 29 0 13 -1 13 -2 0 -11 -13 -9 -12 -12 5 -26 11 -8 31 -17 45 -20 56 -12
93 -44 53 -44 -16 -1 -16 -2 2 -13 11 -6 30 -12 43 -12 13 0 27 -7 32 -15 6
-9 10 -10 10 -3 0 19 -11 43 -21 43 -11 0 -79 68 -79 79 0 8 -23 22 -40 25
-14 3 -99 67 -103 78 -3 7 -6 1 -6 -13z"/>
<path d="M1520 2198 c0 -16 3 -19 11 -11 14 14 106 -6 144 -31 37 -24 44 -11
9 16 -32 26 -95 48 -136 48 -22 0 -28 -5 -28 -22z"/>
<path d="M210 2169 c7 -11 17 -18 25 -15 18 7 27 -5 14 -20 -8 -10 -6 -13 9
-11 26 2 14 27 -22 51 -33 21 -39 20 -26 -5z"/>
<path d="M1258 2183 c-10 -2 -18 -9 -18 -14 0 -5 -6 -9 -14 -9 -8 0 -16 -7
-19 -14 -6 -16 16 -12 41 7 18 14 101 26 108 15 3 -4 14 -8 24 -8 10 0 21 -8
23 -17 3 -12 5 -9 6 8 1 20 -5 28 -21 33 -26 6 -104 6 -130 -1z"/>
<path d="M1510 2142 c0 -20 3 -23 9 -13 5 8 16 11 25 8 9 -4 16 -2 16 3 0 14
103 -20 120 -40 11 -13 21 -16 35 -10 17 8 18 9 2 9 -10 1 -20 7 -23 15 -8 20
-71 44 -131 50 -52 5 -53 5 -53 -22z"/>
<path d="M1210 2111 c-14 -13 -17 -18 -7 -11 9 7 42 13 72 14 75 2 91 21 17
21 -46 0 -61 -4 -82 -24z"/>
<path d="M1870 2138 c0 -4 4 -18 10 -33 15 -41 -16 -225 -42 -247 -28 -24 -37
-23 -49 10 -10 25 -12 26 -19 7 -12 -27 -12 -37 -1 -30 5 3 16 -2 24 -10 22
-21 31 -19 65 17 28 27 31 37 30 84 -1 39 3 59 17 74 10 11 14 20 9 20 -5 0
-2 5 6 10 13 9 13 11 0 20 -8 5 -10 10 -5 10 6 0 5 3 -1 8 -6 4 -18 21 -27 37
-9 17 -16 27 -17 23z"/>
<path d="M1586 2092 c12 -15 30 -22 53 -22 22 0 43 -8 58 -22 13 -12 23 -17
23 -12 0 16 -54 52 -86 57 -16 3 -37 8 -48 13 -18 7 -18 6 0 -14z"/>
<path d="M1335 2043 c-87 -55 -115 -98 -96 -145 9 -22 10 -21 10 9 1 39 45 93
102 125 21 12 39 25 39 30 0 13 -12 9 -55 -19z"/>
<path d="M261 1979 c-1 -14 5 -33 12 -43 14 -19 10 -96 -5 -96 -6 0 -7 7 -4
16 3 8 2 13 -3 9 -5 -3 -12 1 -15 7 -3 7 -3 1 0 -14 4 -20 1 -29 -15 -38 -17
-8 -22 -8 -25 2 -21 73 -32 100 -51 122 -35 40 -36 31 -5 -31 16 -32 32 -71
34 -88 3 -16 9 -46 14 -65 l8 -35 6 30 c5 21 19 37 48 55 l41 25 -4 63 c-1 35
-8 66 -14 70 -5 4 -13 14 -16 22 -3 9 -6 5 -6 -11z"/>
<path d="M1575 1979 c4 -8 15 -22 23 -31 8 -10 12 -26 9 -37 -3 -11 0 -22 6
-24 9 -3 8 -11 -1 -31 -10 -21 -10 -27 0 -24 25 9 32 90 9 108 -3 3 -11 14
-17 24 -6 11 -16 22 -24 24 -8 3 -10 0 -5 -9z"/>
<path d="M1479 1966 c14 -17 0 -29 -23 -20 -9 4 -16 1 -16 -6 0 -10 -3 -10
-15 0 -12 10 -15 10 -15 -4 0 -27 58 -21 86 10 30 32 30 34 -2 34 -22 0 -24
-3 -15 -14z"/>
<path d="M2965 1950 c-11 -4 -30 -10 -42 -15 -13 -4 -21 -11 -18 -15 2 -4 -3
-16 -11 -26 -9 -10 -12 -12 -8 -4 7 15 -11 -1 -76 -65 -46 -45 -70 -78 -89
-120 -5 -11 -21 -38 -37 -60 -15 -22 -28 -54 -28 -72 -1 -18 -5 -35 -8 -38 -4
-4 -5 -12 -2 -19 2 -6 -5 -38 -16 -71 -12 -33 -25 -80 -30 -105 -4 -25 -11
-56 -15 -70 -3 -14 -8 -38 -10 -55 -2 -16 -8 -50 -13 -75 -15 -69 -25 -140
-30 -218 -3 -32 -19 -19 -27 21 -4 17 -14 40 -23 50 -12 14 -13 17 -1 17 9 0
10 3 3 8 -6 4 -14 24 -17 44 -10 62 -56 206 -72 221 -8 8 -17 25 -20 39 -8 31
-104 78 -191 94 -16 3 -33 9 -39 13 -5 5 -39 14 -75 20 -89 17 -140 32 -140
43 0 5 -5 6 -10 3 -11 -7 -122 29 -156 51 -23 14 -38 74 -20 74 6 0 5 4 -2 9
-10 6 -11 17 -5 42 5 19 8 46 8 62 -1 15 2 27 5 27 3 0 6 17 7 38 1 35 0 33
-17 -20 -10 -31 -21 -95 -23 -142 -5 -99 6 -126 53 -126 16 0 31 -4 34 -9 6
-9 9 -10 116 -34 78 -18 283 -79 363 -109 57 -21 60 -23 92 -92 34 -72 54
-140 95 -321 12 -55 28 -123 36 -152 8 -28 14 -62 14 -75 0 -34 11 -41 26 -19
11 15 30 19 96 23 82 5 114 0 233 -43 44 -16 125 -17 125 -1 0 13 -17 16 -63
13 -16 -1 -34 2 -40 7 -44 36 -312 67 -344 40 -24 -20 -12 154 22 317 8 39 22
106 30 150 8 44 26 121 39 170 13 50 32 120 41 158 37 146 103 244 247 368 68
59 72 64 33 49z"/>
<path d="M3 1935 c0 -9 12 -18 26 -21 14 -4 39 -20 54 -38 l28 -31 -15 32
c-26 53 -93 95 -93 58z"/>
<path d="M2933 1877 c-34 -28 -60 -53 -59 -54 1 -2 30 7 64 20 59 21 62 24 62
55 0 17 -1 32 -2 31 -2 0 -31 -23 -65 -52z"/>
<path d="M1679 1871 c-9 -28 -13 -51 -9 -51 9 0 33 75 28 90 -2 6 -10 -11 -19
-39z"/>
<path d="M1266 1903 c-3 -3 13 -20 35 -36 36 -26 52 -31 120 -35 109 -6 214
24 147 42 -32 8 -40 7 -34 -3 13 -21 -25 -33 -86 -27 -87 7 -116 15 -123 33
-5 13 2 15 42 9 89 -14 143 -17 143 -8 0 13 -233 36 -244 25z"/>
<path d="M341 1808 c28 -51 29 -81 7 -142 -12 -34 -31 -69 -42 -78 -11 -9 -18
-19 -15 -22 8 -9 53 34 67 64 34 71 27 190 -11 196 -14 2 -15 -1 -6 -18z"/>
<path d="M2935 1815 c-29 -14 -29 -14 -5 -14 35 -1 70 10 70 20 0 13 -30 10
-65 -6z"/>
<path d="M301 1794 c9 -11 19 -26 22 -34 4 -8 5 -2 4 15 -1 21 -8 31 -22 34
-19 3 -19 2 -4 -15z"/>
<path d="M1350 1770 c23 -15 97 -23 127 -14 26 7 24 8 -22 15 -76 11 -123 11
-105 -1z"/>
<path d="M2827 1755 c-20 -14 -37 -32 -37 -39 0 -7 -9 -25 -21 -40 -14 -18
-16 -26 -7 -26 20 1 81 57 74 68 -4 6 -1 14 6 18 13 8 25 10 111 12 34 2 47 6
47 17 0 12 -14 15 -68 15 -56 0 -74 -4 -105 -25z"/>
<path d="M1197 1745 c9 -41 35 -76 54 -71 10 2 16 -3 15 -13 0 -8 5 -16 12
-16 6 0 11 -4 10 -10 -4 -12 149 -24 177 -14 18 7 17 8 -5 9 -14 0 -41 2 -60
4 -19 2 -45 4 -57 4 -12 1 -34 15 -49 31 -15 17 -37 32 -49 35 -12 3 -29 20
-38 38 l-17 33 7 -30z"/>
<path d="M250 1722 c0 -5 6 -16 13 -27 10 -13 16 -15 21 -6 4 6 2 18 -4 26
-13 16 -30 20 -30 7z"/>
<path d="M1560 1684 c0 -6 -16 -16 -35 -24 -42 -16 -43 -21 -10 -37 17 -8 27
-8 32 -1 3 7 1 8 -5 4 -22 -13 -12 15 11 34 12 10 19 22 15 26 -5 4 -8 3 -8
-2z"/>
<path d="M2968 1683 c-10 -2 -18 -8 -18 -13 0 -16 -59 -63 -82 -65 -13 -2 -38
-6 -56 -10 -41 -10 -36 10 11 43 40 27 20 29 -39 2 -53 -24 -63 -60 -16 -60
42 0 60 -16 27 -24 -16 -4 -33 -2 -41 5 -8 7 -15 10 -17 8 -25 -44 -32 -65
-44 -124 -7 -38 -13 -85 -13 -104 0 -29 2 -32 16 -20 30 25 72 95 79 132 4 19
20 54 37 76 24 33 36 41 61 41 38 0 117 67 117 100 0 11 -1 19 -2 19 -2 -1
-11 -3 -20 -6z"/>
<path d="M190 1645 c-6 -17 -7 -32 -2 -37 6 -6 12 4 16 23 8 42 0 50 -14 14z"/>
<path d="M224 1545 c-9 -50 2 -55 20 -10 19 46 19 45 1 45 -8 0 -17 -14 -21
-35z"/>
<path d="M2944 1552 c-6 -4 -23 -26 -37 -48 -14 -23 -39 -51 -54 -62 -17 -12
-35 -40 -46 -70 -11 -32 -29 -59 -47 -72 -17 -12 -30 -27 -30 -34 0 -7 -11
-23 -24 -35 -17 -16 -25 -38 -30 -76 -5 -41 -16 -69 -46 -113 -27 -40 -43 -76
-49 -111 -4 -28 -7 -51 -5 -51 5 0 44 88 44 99 0 6 5 11 10 11 6 0 10 6 10 13
0 29 25 67 41 62 13 -5 18 8 28 70 11 65 17 79 42 97 16 12 29 29 29 38 0 10
17 37 38 61 22 24 37 50 35 57 -3 6 -1 12 4 12 4 0 31 29 58 65 28 35 58 65
68 65 9 0 17 7 17 15 0 16 -36 20 -56 7z"/>
<path d="M160 1463 c-14 -9 -31 -25 -38 -35 -7 -10 -18 -18 -24 -18 -5 0 -22
-9 -38 -20 -15 -11 -29 -18 -31 -16 -2 2 -10 -2 -17 -10 -21 -23 4 -17 73 19
36 17 65 38 65 45 0 6 4 12 10 12 5 0 14 9 20 20 13 24 11 25 -20 3z"/>
<path d="M1759 1398 c-37 -78 -91 -129 -177 -170 -39 -18 -63 -21 -140 -20
-106 3 -178 25 -230 72 -35 32 -82 112 -82 139 0 13 -2 13 -9 2 -5 -7 -8 -19
-7 -25 2 -15 48 -90 58 -94 4 -2 8 -10 8 -18 0 -8 8 -17 18 -21 9 -3 26 -16
37 -27 11 -12 27 -21 35 -21 8 1 29 -5 45 -11 17 -7 69 -14 115 -16 47 -2 88
-7 92 -13 5 -6 8 -6 8 2 0 14 107 56 121 48 5 -3 6 2 2 11 -4 10 -2 15 3 11 6
-3 16 3 24 13 8 10 17 17 22 14 4 -3 8 2 8 11 0 9 4 14 9 10 5 -3 12 4 16 15
3 11 11 20 16 20 6 0 7 5 4 10 -3 6 -1 10 4 10 6 0 11 8 11 18 0 9 9 32 21 51
11 19 17 37 12 42 -5 5 -24 -22 -44 -63z"/>
<path d="M1925 1439 c11 -7 23 -17 27 -23 4 -6 8 -7 8 -3 0 5 7 1 16 -7 17
-17 59 -22 49 -6 -3 6 -13 10 -22 10 -9 0 -24 6 -32 14 -9 7 -27 17 -41 20
-23 6 -23 6 -5 -5z"/>
<path d="M1893 1390 c8 -12 25 -29 36 -37 12 -8 21 -20 20 -26 -3 -23 1 -33
19 -53 22 -24 44 -110 45 -175 1 -34 5 -49 14 -49 10 0 12 9 8 33 -3 17 -9 61
-14 97 -12 85 -38 151 -52 130 -8 -11 -9 -9 -4 8 7 25 -5 41 -59 76 l-29 18
16 -22z"/>
<path d="M1063 1384 c-17 -18 -16 -21 7 -27 20 -5 26 8 12 29 -5 9 -10 8 -19
-2z"/>
<path d="M1840 1389 c0 -17 65 -110 69 -98 2 6 -2 15 -9 19 -6 4 -11 11 -11
16 1 5 -6 24 -16 42 -17 32 -33 42 -33 21z"/>
<path d="M2145 1324 c114 -35 124 -37 90 -18 -33 19 -119 44 -150 43 -11 0 16
-11 60 -25z"/>
<path d="M2650 1318 c0 -2 -9 -46 -20 -98 -24 -118 -24 -122 0 -84 19 30 41
184 26 184 -3 0 -6 -1 -6 -2z"/>
<path d="M690 1190 c-60 -24 -82 -54 -71 -100 l9 -35 1 41 c1 41 19 78 36 73
6 -2 28 7 50 19 48 25 37 27 -25 2z"/>
<path d="M260 1142 c0 -28 -10 -44 -58 -91 -46 -46 -70 -62 -114 -75 -31 -9
-63 -16 -72 -16 -9 0 -16 -4 -16 -10 0 -17 55 -11 117 12 73 27 131 84 154
151 10 29 19 43 22 34 3 -8 3 -23 1 -34 -4 -15 1 -18 31 -20 23 -1 33 2 29 9
-5 8 1 9 17 4 13 -4 46 -13 73 -20 54 -13 74 -36 32 -36 -16 0 -26 -6 -26 -15
0 -8 9 -15 20 -15 16 0 18 -5 14 -37 -6 -51 -14 -73 -25 -73 -5 0 -9 -4 -9
-10 0 -5 7 -10 16 -10 11 0 14 -5 9 -17 -8 -20 -20 -92 -34 -193 -5 -36 -13
-83 -19 -105 -6 -22 -13 -56 -16 -75 -3 -19 -10 -59 -15 -89 -6 -29 -11 -56
-11 -58 0 -2 -22 18 -48 45 -52 53 -138 94 -205 96 -29 1 -43 8 -67 36 -16 19
-30 30 -30 23 0 -6 7 -18 15 -27 20 -20 19 -53 -3 -59 -9 -3 17 -4 58 -4 66 2
82 -2 135 -29 139 -72 193 -242 122 -385 -21 -44 -22 -49 -7 -49 18 0 51 63
56 107 2 12 8 32 14 44 9 15 9 24 1 32 -13 13 -15 41 -2 33 5 -4 11 -2 13 4 1
5 20 11 42 13 l39 2 2 -58 c1 -45 -1 -57 -12 -53 -11 5 -10 1 2 -16 8 -13 15
-35 15 -49 0 -32 9 -59 20 -59 4 0 5 60 2 134 l-5 134 37 12 c38 12 208 16
226 5 6 -3 10 -19 10 -34 0 -15 4 -41 9 -57 5 -16 13 -56 17 -89 4 -33 9 -53
11 -44 4 15 -10 139 -21 186 -2 11 -12 36 -22 55 -14 25 -19 29 -22 15 -2 -9
-8 -15 -13 -11 -26 16 -160 4 -231 -21 -86 -30 -148 -46 -148 -36 0 6 22 136
45 266 8 44 17 103 20 130 4 28 11 66 16 85 4 19 10 64 13 100 2 36 6 72 9 80
5 13 25 122 30 158 2 15 -112 62 -156 64 -15 0 -32 9 -37 18 -5 10 -23 20 -40
22 -28 4 -30 3 -30 -30z"/>
<path d="M2147 1159 c-4 -13 -6 -44 -6 -69 l0 -45 15 47 c9 29 11 54 6 69 l-9
23 -6 -25z"/>
<path d="M2342 1065 c-10 -12 -10 -15 0 -15 8 0 14 -8 15 -17 0 -10 6 -40 12
-68 17 -74 32 -173 36 -237 3 -32 11 -70 20 -85 l16 -28 -6 35 c-4 19 -8 51
-9 70 -2 19 -6 46 -9 60 -3 14 -8 52 -10 85 -4 60 -38 215 -47 215 -3 -1 -11
-7 -18 -15z"/>
<path d="M2301 1022 c-1 -13 -6 -33 -12 -44 -8 -15 -8 -19 1 -13 15 9 39 -24
40 -55 1 -49 4 -68 12 -64 4 3 8 -1 8 -8 0 -13 -24 -45 -123 -168 -27 -33 -44
-60 -38 -60 6 0 11 4 11 9 0 17 142 161 152 155 17 -11 -6 133 -36 226 -10 30
-15 37 -15 22z"/>
<path d="M2016 1012 c6 -4 11 -27 13 -52 4 -90 21 -148 21 -73 0 79 -12 133
-29 133 -10 0 -12 -3 -5 -8z"/>
<path d="M619 975 c-14 -13 16 -103 61 -182 27 -46 51 -94 53 -106 4 -19 4
-18 6 5 0 15 -14 52 -34 85 -19 32 -35 63 -35 70 0 6 -5 13 -11 15 -6 2 -16
30 -23 62 -6 31 -14 55 -17 51z"/>
<path d="M2083 925 c6 -24 14 -42 18 -39 12 7 -6 84 -20 84 -5 0 -4 -20 2 -45z"/>
<path d="M2248 918 c-14 -18 -30 -44 -37 -58 -12 -24 -11 -24 11 2 26 30 62
88 55 88 -3 0 -16 -15 -29 -32z"/>
<path d="M1425 924 c-11 -3 -47 -10 -80 -16 -61 -12 -118 -44 -169 -95 -120
-119 -69 -366 94 -448 66 -33 107 -38 196 -24 129 20 174 50 221 149 23 47 27
69 27 150 1 80 -2 101 -21 135 -42 75 -86 111 -167 139 -49 16 -63 17 -101 10z
m148 -52 c84 -46 127 -124 127 -234 0 -63 -38 -178 -69 -210 -33 -34 -92 -57
-171 -68 -106 -15 -172 3 -237 63 -67 61 -88 114 -88 217 0 77 3 89 29 128 53
79 120 114 256 136 46 7 103 -4 153 -32z"/>
<path d="M1417 862 c-7 -9 28 -52 42 -52 16 0 13 12 -8 38 -20 24 -27 26 -34
14z"/>
<path d="M1384 791 c4 -6 -5 -9 -24 -6 -16 2 -30 0 -30 -4 0 -5 25 -9 55 -10
46 -1 55 2 55 17 0 14 -2 15 -10 2 -8 -13 -13 -13 -31 -2 -11 8 -18 9 -15 3z"/>
<path d="M1352 705 c-9 -13 -25 -37 -34 -54 -10 -18 -25 -31 -36 -31 -11 0
-26 -7 -33 -17 -13 -15 -11 -16 14 -11 30 6 35 -3 12 -22 -22 -18 -19 -39 4
-33 11 3 27 22 35 44 23 57 69 126 74 111 2 -6 8 -10 13 -6 5 3 9 -2 9 -11 0
-9 -4 -13 -10 -10 -6 4 -10 -9 -10 -30 0 -61 25 -37 28 27 3 53 2 56 -23 60
-19 4 -30 -1 -43 -17z"/>
<path d="M1447 724 c-15 -15 -7 -70 13 -87 39 -33 54 -18 18 20 -25 27 -14 47
23 41 32 -4 40 -55 12 -75 -15 -12 -16 -15 -3 -23 32 -20 62 58 39 99 -11 20
-24 27 -55 29 -22 2 -43 0 -47 -4z"/>
<path d="M1340 619 c0 -19 39 -66 59 -72 16 -4 19 0 19 23 -1 20 -5 27 -15 23
-8 -3 -23 4 -34 16 -22 24 -29 26 -29 10z"/>
<path d="M1440 575 c0 -26 4 -35 16 -35 12 0 15 6 11 21 -9 33 22 37 49 6 13
-15 33 -27 45 -27 l22 0 -23 25 c-13 14 -25 23 -28 21 -2 -2 -19 2 -37 10 -49
20 -55 18 -55 -21z"/>
<path d="M788 833 c-3 -78 9 -187 23 -214 5 -9 5 -20 1 -24 -4 -5 -2 -6 4 -2
13 8 10 100 -4 105 -6 2 -9 33 -6 87 3 50 0 86 -6 90 -6 4 -11 -12 -12 -42z"/>
<path d="M2264 803 c-48 -72 -94 -156 -62 -110 7 10 37 52 66 94 29 41 52 79
50 85 -2 5 -26 -26 -54 -69z"/>
<path d="M2107 805 c15 -227 15 -259 -2 -405 -15 -126 -17 -166 -7 -235 7 -55
8 -95 1 -117 -12 -44 -12 -44 12 -22 18 17 20 26 15 74 -15 130 -16 179 -4
250 12 71 15 75 52 96 78 44 198 52 254 18 19 -13 22 -13 22 1 0 23 -46 37
-118 37 -61 -1 -156 -25 -167 -43 -4 -5 -12 -9 -19 -9 -11 0 -14 27 -13 123 0
213 -3 273 -12 258 -7 -11 -10 -9 -14 10 -3 13 -3 -3 0 -36z"/>
<path d="M2451 762 c7 -73 22 -121 32 -105 3 5 0 34 -8 64 -8 30 -15 64 -15
76 0 12 -4 24 -8 27 -4 2 -5 -26 -1 -62z"/>
<path d="M2623 660 c-29 -16 -58 -27 -66 -25 -7 3 -47 -11 -88 -31 -41 -20
-68 -39 -61 -41 7 -3 30 5 52 16 22 11 40 17 40 12 0 -5 -7 -12 -16 -15 -9 -4
-14 -9 -11 -12 3 -3 18 1 34 8 15 8 49 25 75 37 26 13 49 29 52 37 3 8 15 14
26 14 11 0 20 7 20 15 0 19 4 20 -57 -15z"/>
<path d="M2370 650 c0 -11 -6 -20 -14 -20 -8 0 -16 -7 -19 -15 -5 -12 -2 -12
18 -3 16 7 25 19 25 35 0 12 -2 23 -5 23 -3 0 -5 -9 -5 -20z"/>
<path d="M2990 566 c0 -14 -5 -28 -10 -31 -7 -4 -8 -25 -4 -53 11 -76 19 -67
21 23 1 47 0 85 -3 85 -2 0 -4 -11 -4 -24z"/>
<path d="M2571 501 c-12 -12 -25 -21 -31 -21 -5 0 -10 -4 -10 -10 0 -5 5 -10
10 -10 15 0 65 48 58 55 -4 4 -16 -3 -27 -14z"/>
<path d="M62 430 c-18 -4 -36 -11 -40 -15 -4 -5 3 -5 16 -2 12 3 22 2 22 -3 0
-4 6 -8 13 -7 54 2 87 -5 87 -17 0 -10 -10 -13 -37 -11 -33 3 -36 2 -20 -9 29
-22 22 -53 -14 -61 -23 -5 -28 -9 -18 -16 8 -5 15 -4 17 1 2 6 28 10 58 10 45
0 59 -4 79 -25 29 -28 34 -89 9 -116 -14 -16 -13 -19 15 -40 38 -28 39 -39 4
-39 -17 0 -36 11 -52 30 -17 20 -30 27 -39 22 -17 -11 -5 -40 19 -47 10 -3 34
-24 52 -46 19 -21 38 -39 44 -39 18 0 52 45 68 89 45 128 -8 262 -126 322 -59
29 -96 34 -157 19z m158 -62 c0 -4 5 -8 11 -8 19 0 41 -30 35 -47 -5 -13 -12
-10 -36 16 -17 17 -37 31 -45 31 -8 0 -15 9 -15 20 0 17 3 18 25 8 14 -6 25
-15 25 -20z m104 -129 c17 -67 2 -159 -26 -159 -7 0 -7 5 0 13 8 10 7 17 -7
29 -14 12 -17 25 -14 62 3 25 1 59 -5 74 -6 19 -6 35 0 46 15 27 34 3 52 -65z"/>
<path d="M2460 336 c0 -33 18 -43 35 -20 19 25 19 38 0 30 -8 -3 -15 -1 -15 4
0 6 -4 10 -10 10 -5 0 -10 -11 -10 -24z"/>
<path d="M2905 292 c-25 -23 -139 -72 -168 -72 -51 0 -162 -69 -142 -88 4 -4
10 -1 12 6 3 6 11 12 19 12 8 0 14 4 14 9 0 10 101 51 126 51 25 0 139 60 152
81 15 24 12 24 -13 1z"/>
<path d="M87 243 c10 -65 14 -73 33 -73 26 0 25 12 0 30 -12 8 -20 26 -20 42
0 15 -4 28 -9 28 -4 0 -6 -12 -4 -27z"/>
<path d="M2525 250 c-3 -11 -13 -20 -21 -20 -11 0 -14 -17 -14 -77 0 -43 -3
-95 -7 -117 -4 -29 -3 -38 7 -34 9 3 13 24 12 66 0 49 3 62 15 62 11 0 13 5 8
18 -17 39 -15 50 9 79 30 35 32 43 12 43 -8 0 -18 -9 -21 -20z"/>
<path d="M140 248 c1 -17 46 -68 60 -68 14 0 13 53 -2 68 -16 16 -58 15 -58 0z"/>
</g>
</svg>
